<svg class="w-6 h-6" viewBox="0 0 23 16" fill="none" xmlns="http://www.w3.org/2000/svg">
<path d="M18.0299 15.2399H4.89994C4.74277 15.2414 4.58924 15.1927 4.46158 15.101C4.33393 15.0093 4.23879 14.8793 4.18994 14.7299L0.999941 4.99994C0.951068 4.86003 0.945939 4.70855 0.985237 4.56565C1.02453 4.42275 1.1064 4.29519 1.21994 4.19994C1.33208 4.10155 1.47135 4.03935 1.61947 4.02151C1.76758 4.00366 1.91764 4.031 2.04994 4.09994L7.86994 6.99994L10.8699 1.17994C10.9391 1.06391 11.0372 0.967837 11.1547 0.901116C11.2721 0.834394 11.4049 0.799316 11.5399 0.799316C11.675 0.799316 11.8078 0.834394 11.9252 0.901116C12.0427 0.967837 12.1408 1.06391 12.2099 1.17994L15.2099 7.00994L21.0399 4.10994C21.1707 4.04184 21.3191 4.01495 21.4654 4.0328C21.6118 4.05065 21.7494 4.11241 21.8599 4.20994C21.9557 4.31485 22.0197 4.44479 22.0445 4.58465C22.0692 4.7245 22.0538 4.86852 21.9999 4.99994L18.7399 14.7199C18.6928 14.8712 18.5984 15.0034 18.4706 15.097C18.3428 15.1906 18.1884 15.2407 18.0299 15.2399ZM5.49994 13.7399H17.4999L20.0099 6.24994L15.1399 8.66994C15.0527 8.71456 14.9575 8.74142 14.8599 8.74896C14.7622 8.7565 14.664 8.74458 14.571 8.71388C14.478 8.68319 14.392 8.63432 14.318 8.57013C14.244 8.50594 14.1835 8.4277 14.1399 8.33994L11.4999 3.15994L8.86994 8.33994C8.82642 8.4277 8.7659 8.50594 8.69191 8.57013C8.61792 8.63432 8.53191 8.68319 8.43889 8.71388C8.34587 8.74458 8.24768 8.7565 8.15001 8.74896C8.05234 8.74142 7.95715 8.71456 7.86994 8.66994L2.97994 6.21994L5.49994 13.7399Z" fill="#78828A"/>
</svg>
